<svg width="680" height="48" viewBox="0 0 680 48" fill="none" xmlns="http://www.w3.org/2000/svg">
<rect y="4" width="680" height="8" rx="4" fill="black" fill-opacity="0.08"/>
<rect y="4" width="340" height="8" rx="4" fill="#5558FA"/>
<g clip-path="url(#clip0_5_29603)">
<path d="M2.67285 33.3457L0.560547 35.2256V34.1182L2.68652 32.1973H3.5957V42H2.67285V33.3457Z" fill="#5558FA"/>
<rect width="16" height="16" rx="8" fill="#5558FA"/>
<path d="M7.66147 11.8737C7.56698 11.9987 7.41929 12.0723 7.26252 12.0723H6.68243C6.54729 12.0723 6.41791 12.0176 6.32376 11.9206L3.50413 9.01762C3.31569 8.8236 3.31569 8.51491 3.50413 8.32089L3.97572 7.83535C4.1721 7.63317 4.49669 7.63317 4.69306 7.83535L6.49489 9.69046C6.70845 9.91034 7.06776 9.88806 7.25251 9.64349L11.1512 4.48265C11.321 4.2579 11.6428 4.21769 11.8627 4.39375L12.3864 4.81309C12.5976 4.98226 12.6359 5.28881 12.4728 5.50476L7.66147 11.8737Z" fill="white"/>
<path d="M344.211 42H335.728V40.4482C335.728 39.988 335.837 39.5687 336.056 39.1904C336.279 38.8122 336.582 38.5046 336.965 38.2676C337.525 37.9167 338.378 37.5475 339.521 37.1602C339.895 37.0371 340.212 36.9209 340.472 36.8115C340.731 36.6976 340.984 36.5632 341.23 36.4082C341.481 36.2533 341.668 36.0778 341.791 35.8818C341.919 35.6859 341.982 35.4717 341.982 35.2393C341.982 34.3597 341.354 33.9199 340.096 33.9199C339.467 33.9199 338.993 34.0566 338.674 34.3301C338.359 34.6035 338.202 34.9863 338.202 35.4785V35.8818H335.994V35.4785C335.994 34.3483 336.34 33.4961 337.033 32.9219C337.73 32.3477 338.751 32.0605 340.096 32.0605C341.426 32.0605 342.443 32.3317 343.145 32.874C343.846 33.4163 344.197 34.2048 344.197 35.2393C344.197 35.8226 344.051 36.3353 343.76 36.7773C343.459 37.2285 343.09 37.5794 342.652 37.8301C342.197 38.099 341.718 38.3359 341.217 38.541C340.684 38.7598 340.205 38.9352 339.781 39.0674C339.33 39.2041 338.961 39.3636 338.674 39.5459C338.378 39.7327 338.229 39.931 338.229 40.1406H344.211V42Z" fill="#5558FA"/>
<rect x="332" width="16" height="16" rx="8" fill="#5558FA"/>
<circle cx="340" cy="7.9999" r="1.6" fill="white"/>
<rect x="664" width="16" height="16" rx="8" fill="#A6A6A6"/>
<path d="M679.091 39.0332C679.091 39.9902 678.742 40.7467 678.045 41.3027C677.338 41.8587 676.422 42.1367 675.297 42.1367C674.162 42.1367 673.244 41.8587 672.542 41.3027C671.84 40.7513 671.489 39.9857 671.489 39.0059V38.7529H672.412V39.0059C672.412 39.7578 672.674 40.3275 673.198 40.7148C673.722 41.1068 674.422 41.3027 675.297 41.3027C676.158 41.3027 676.853 41.1068 677.382 40.7148C677.906 40.3275 678.168 39.7669 678.168 39.0332C678.168 38.2949 677.908 37.7389 677.389 37.3652C676.874 36.9915 676.176 36.8047 675.297 36.8047H672.973V35.8955L677.3 33.0654V33.0381H671.852V32.1973H678.701V33.1133L674.374 35.9365V35.9639H675.297C676.436 35.9639 677.354 36.2305 678.052 36.7637C678.744 37.2969 679.091 38.0534 679.091 39.0332Z" fill="#666666"/>
</g>
<defs>
<clipPath id="clip0_5_29603">
<rect width="680" height="48" fill="white"/>
</clipPath>
</defs>
</svg>
