<svg width="680" height="48" viewBox="0 0 680 48" fill="none" xmlns="http://www.w3.org/2000/svg">
<rect y="4" width="680" height="8" rx="4" fill="black" fill-opacity="0.08"/>
<g clip-path="url(#clip0_5_29552)">
<path d="M2.40625 35.5195H0.416992V34.1455L2.74121 32.1973H4.62109V42H2.40625V35.5195Z" fill="#5558FA"/>
<rect width="16" height="16" rx="8" fill="#5558FA"/>
<circle cx="7.9999" cy="7.9999" r="1.6" fill="white"/>
<rect x="332" width="16" height="16" rx="8" fill="#A6A6A6"/>
<path d="M343.396 42H335.61V41.2412C335.61 40.8174 335.706 40.4255 335.897 40.0654C336.089 39.7008 336.349 39.3932 336.677 39.1426C337.31 38.6504 338.087 38.2288 339.008 37.8779C339.874 37.5452 340.651 37.1556 341.339 36.709C341.667 36.4948 341.924 36.2373 342.111 35.9365C342.303 35.6312 342.398 35.3008 342.398 34.9453C342.398 34.2845 342.148 33.7786 341.646 33.4277C341.136 33.0768 340.464 32.9014 339.63 32.9014C338.787 32.9014 338.115 33.0859 337.613 33.4551C337.107 33.8242 336.854 34.362 336.854 35.0684V35.3486H335.932V35.0684C335.932 34.1159 336.271 33.3753 336.95 32.8467C337.625 32.3226 338.518 32.0605 339.63 32.0605C340.742 32.0605 341.635 32.3158 342.31 32.8262C342.984 33.3366 343.321 34.043 343.321 34.9453C343.321 35.4329 343.201 35.8796 342.959 36.2852C342.722 36.6908 342.398 37.0303 341.988 37.3037C341.359 37.723 340.439 38.1878 339.227 38.6982C338.908 38.8304 338.63 38.9535 338.393 39.0674C338.16 39.1813 337.921 39.318 337.675 39.4775C337.433 39.6325 337.235 39.7897 337.08 39.9492C336.925 40.1087 336.8 40.2933 336.704 40.5029C336.608 40.708 336.561 40.9268 336.561 41.1592H343.396V42Z" fill="#666666"/>
<rect x="664" width="16" height="16" rx="8" fill="#A6A6A6"/>
<path d="M679.091 39.0332C679.091 39.9902 678.742 40.7467 678.045 41.3027C677.339 41.8587 676.423 42.1367 675.297 42.1367C674.162 42.1367 673.244 41.8587 672.542 41.3027C671.84 40.7513 671.489 39.9857 671.489 39.0059V38.7529H672.412V39.0059C672.412 39.7578 672.674 40.3275 673.198 40.7148C673.722 41.1068 674.422 41.3027 675.297 41.3027C676.158 41.3027 676.853 41.1068 677.382 40.7148C677.906 40.3275 678.168 39.7669 678.168 39.0332C678.168 38.2949 677.908 37.7389 677.389 37.3652C676.874 36.9915 676.176 36.8047 675.297 36.8047H672.973V35.8955L677.3 33.0654V33.0381H671.852V32.1973H678.701V33.1133L674.374 35.9365V35.9639H675.297C676.436 35.9639 677.354 36.2305 678.052 36.7637C678.744 37.2969 679.091 38.0534 679.091 39.0332Z" fill="#666666"/>
</g>
<defs>
<clipPath id="clip0_5_29552">
<rect width="680" height="48" fill="white"/>
</clipPath>
</defs>
</svg>
