<svg width="680" height="48" viewBox="0 0 680 48" fill="none" xmlns="http://www.w3.org/2000/svg">
<rect y="4" width="680" height="8" rx="4" fill="black" fill-opacity="0.08"/>
<rect y="4" width="670" height="8" rx="4" fill="#5558FA"/>
<g clip-path="url(#clip0_10_29638)">
<path d="M2.67285 33.3457L0.560547 35.2256V34.1182L2.68652 32.1973H3.5957V42H2.67285V33.3457Z" fill="#5558FA"/>
<rect width="16" height="16" rx="8" fill="#5558FA"/>
<path d="M7.6615 11.8737C7.56701 11.9987 7.41932 12.0723 7.26255 12.0723H6.68246C6.54732 12.0723 6.41794 12.0176 6.32379 11.9206L3.50416 9.01762C3.31572 8.8236 3.31572 8.51491 3.50416 8.32089L3.97576 7.83535C4.17213 7.63317 4.49672 7.63317 4.69309 7.83535L6.49492 9.69046C6.70848 9.91034 7.06779 9.88806 7.25254 9.64349L11.1512 4.48265C11.321 4.2579 11.6429 4.21769 11.8627 4.39375L12.3864 4.81309C12.5976 4.98226 12.6359 5.28881 12.4728 5.50476L7.6615 11.8737Z" fill="white"/>
<path d="M343.896 42H336.11V41.2412C336.11 40.8174 336.206 40.4255 336.397 40.0654C336.589 39.7008 336.849 39.3932 337.177 39.1426C337.81 38.6504 338.587 38.2288 339.508 37.8779C340.374 37.5452 341.151 37.1556 341.839 36.709C342.167 36.4948 342.424 36.2373 342.611 35.9365C342.803 35.6312 342.898 35.3008 342.898 34.9453C342.898 34.2845 342.648 33.7786 342.146 33.4277C341.636 33.0768 340.964 32.9014 340.13 32.9014C339.287 32.9014 338.615 33.0859 338.113 33.4551C337.607 33.8242 337.354 34.362 337.354 35.0684V35.3486H336.432V35.0684C336.432 34.1159 336.771 33.3753 337.45 32.8467C338.125 32.3226 339.018 32.0605 340.13 32.0605C341.242 32.0605 342.135 32.3158 342.81 32.8262C343.484 33.3366 343.821 34.043 343.821 34.9453C343.821 35.4329 343.701 35.8796 343.459 36.2852C343.222 36.6908 342.898 37.0303 342.488 37.3037C341.859 37.723 340.939 38.1878 339.727 38.6982C339.408 38.8304 339.13 38.9535 338.893 39.0674C338.66 39.1813 338.421 39.318 338.175 39.4775C337.933 39.6325 337.735 39.7897 337.58 39.9492C337.425 40.1087 337.3 40.2933 337.204 40.5029C337.108 40.708 337.061 40.9268 337.061 41.1592H343.896V42Z" fill="#5558FA"/>
<rect x="332" width="16" height="16" rx="8" fill="#5558FA"/>
<path d="M339.662 11.8737C339.567 11.9987 339.419 12.0723 339.263 12.0723H338.682C338.547 12.0723 338.418 12.0176 338.324 11.9206L335.504 9.01762C335.316 8.8236 335.316 8.51491 335.504 8.32089L335.976 7.83535C336.172 7.63317 336.497 7.63317 336.693 7.83535L338.495 9.69046C338.708 9.91034 339.068 9.88806 339.253 9.64349L343.151 4.48265C343.321 4.2579 343.643 4.21769 343.863 4.39375L344.386 4.81309C344.598 4.98226 344.636 5.28881 344.473 5.50476L339.662 11.8737Z" fill="white"/>
<path d="M674.935 33.9951H671.141V32.1973H678.728V33.9951L675.673 35.7109L674.538 36.0391V36.2441L675.857 35.9365C676.901 35.9365 677.724 36.1895 678.325 36.6953C678.927 37.2057 679.227 37.9326 679.227 38.876C679.227 39.915 678.861 40.7194 678.127 41.2891C677.393 41.8542 676.347 42.1367 674.989 42.1367C673.631 42.1367 672.585 41.8542 671.852 41.2891C671.113 40.7285 670.744 39.915 670.744 38.8486V38.623H672.959V38.8486C672.959 39.8011 673.636 40.2773 674.989 40.2773C676.343 40.2773 677.019 39.8102 677.019 38.876C677.019 37.9326 676.343 37.4609 674.989 37.4609H672.091V36.1074L674.935 34.3027L676.069 33.9746V33.7695L674.935 33.9951Z" fill="#5558FA"/>
<rect x="664" width="16" height="16" rx="8" fill="#5558FA"/>
<circle cx="672" cy="7.9999" r="1.6" fill="white"/>
</g>
<defs>
<clipPath id="clip0_10_29638">
<rect width="680" height="48" fill="white"/>
</clipPath>
</defs>
</svg>
